<?xml version="1.0" standalone="no"?><!DOCTYPE svg PUBLIC "-//W3C//DTD SVG 1.1//EN" "http://www.w3.org/Graphics/SVG/1.1/DTD/svg11.dtd"><svg class="icon" height="512" viewBox="0 0 1024 1024" version="1.1" xmlns="http://www.w3.org/2000/svg"><path d="M453.12 734.72c-45.056 45.056-118.272 45.056-163.84 0-45.056-45.056-45.056-118.272 0-163.84l115.712-115.712c45.056-45.056 118.272-45.056 163.84 0l3.584 3.584c2.56 2.048 4.608 4.608 6.656 7.68l0.512 0.512c5.632 10.24 4.096 23.552-5.12 32.768-8.704 8.704-22.528 10.24-32.768 4.608-0.512 1.024-8.192-6.656-11.776-10.24-23.552-23.552-61.44-23.552-84.992 0l-116.224 116.224c-23.552 23.552-23.552 61.952 0 85.504s61.952 23.552 85.504 0l69.632-70.144c24.064 11.776 52.736 12.288 77.312 1.024-0.512 0-108.032 108.032-108.032 108.032z"  /><path d="M734.72 453.12l-115.712 115.712c-45.056 45.056-118.272 45.056-163.84 0l-3.584-3.584c-0.512-0.512-1.536-1.024-2.048-1.536-1.536-1.536-3.072-3.584-4.608-6.144l-0.512-0.512c-5.632-10.24-4.096-23.552 5.12-32.768 8.704-8.704 22.528-10.24 32.768-4.608 0.512-1.024 8.192 6.656 11.776 10.24 23.552 23.552 61.44 23.552 84.992 0l116.224-116.224c23.552-23.552 23.552-61.952 0-85.504s-61.952-23.552-85.504 0l-70.144 69.632c-24.064-11.776-52.736-12.288-77.312-1.024l108.032-108.032c45.056-45.056 118.272-45.056 163.84 0 45.568 45.568 45.568 118.784 0.512 164.352z"  /><path d="M512 64c-247.296 0-448 200.704-448 448s200.704 448 448 448 448-200.704 448-448-200.704-448-448-448z m0 844.8c-219.136 0-396.8-177.664-396.8-396.8S292.864 115.2 512 115.2s396.8 177.664 396.8 396.8-177.664 396.8-396.8 396.8z"  /></svg>